<svg width="20" height="20" viewBox="0 0 20 20" fill="none" xmlns="http://www.w3.org/2000/svg">
  <g clip-path="url(#clip0_14244_5589)">
    <path fill-rule="evenodd" clip-rule="evenodd" d="M10 0C4.486 0 0 4.486 0 10C0 11.728 0.45 13.42 1.304 14.924L0.101 17.965C-0.357 19.174 0.827 20.358 2.036 19.899L5.076 18.695C6.57618 19.5502 8.2732 19.9999 10 20C15.514 20 20 15.514 20 10C20 4.486 15.514 0 10 0ZM5.293 9.293C5.38565 9.19981 5.49581 9.12587 5.61715 9.0754C5.73848 9.02494 5.86859 8.99897 6 8.99897C6.13141 8.99897 6.26152 9.02494 6.38285 9.0754C6.50419 9.12587 6.61435 9.19981 6.707 9.293C6.80018 9.38565 6.87413 9.49581 6.9246 9.61715C6.97506 9.73848 7.00103 9.86859 7.00103 10C7.00103 10.1314 6.97506 10.2615 6.9246 10.3829C6.87413 10.5042 6.80018 10.6143 6.707 10.707C6.61435 10.8002 6.50419 10.8741 6.38285 10.9246C6.26152 10.9751 6.13141 11.001 6 11.001C5.86859 11.001 5.73848 10.9751 5.61715 10.9246C5.49581 10.8741 5.38565 10.8002 5.293 10.707C5.19982 10.6143 5.12587 10.5042 5.0754 10.3829C5.02494 10.2615 4.99897 10.1314 4.99897 10C4.99897 9.86859 5.02494 9.73848 5.0754 9.61715C5.12587 9.49581 5.19982 9.38565 5.293 9.293ZM9.293 9.293C9.38565 9.19981 9.49581 9.12587 9.61715 9.0754C9.73848 9.02494 9.86859 8.99897 10 8.99897C10.1314 8.99897 10.2615 9.02494 10.3829 9.0754C10.5042 9.12587 10.6143 9.19981 10.707 9.293C10.8002 9.38565 10.8741 9.49581 10.9246 9.61715C10.9751 9.73848 11.001 9.86859 11.001 10C11.001 10.1314 10.9751 10.2615 10.9246 10.3829C10.8741 10.5042 10.8002 10.6143 10.707 10.707C10.5191 10.8937 10.2649 10.9986 10 10.9986C9.73508 10.9986 9.48092 10.8937 9.293 10.707C9.10626 10.5191 9.00145 10.2649 9.00145 10C9.00145 9.73508 9.10626 9.48092 9.293 9.293ZM14 9C13.8686 8.9996 13.7384 9.0252 13.6168 9.07531C13.4953 9.12543 13.3849 9.19907 13.292 9.29201C13.1991 9.38495 13.1254 9.49534 13.0753 9.61685C13.0252 9.73835 12.9996 9.86857 13 10C12.9996 10.1314 13.0252 10.2616 13.0753 10.3832C13.1254 10.5047 13.1991 10.6151 13.292 10.708C13.3849 10.8009 13.4953 10.8746 13.6168 10.9247C13.7384 10.9748 13.8686 11.0004 14 11C14.1314 11.0004 14.2616 10.9748 14.3832 10.9247C14.5047 10.8746 14.6151 10.8009 14.708 10.708C14.8009 10.6151 14.8746 10.5047 14.9247 10.3832C14.9748 10.2616 15.0004 10.1314 15 10C15.0004 9.86857 14.9748 9.73835 14.9247 9.61685C14.8746 9.49534 14.8009 9.38495 14.708 9.29201C14.6151 9.19907 14.5047 9.12543 14.3832 9.07531C14.2616 9.0252 14.1314 8.9996 14 9Z" fill="#B0AAD0" />
  </g>
  <defs>
    <clipPath id="clip0_14244_5589">
      <rect width="20" height="20" fill="white" />
    </clipPath>
  </defs>
</svg>