<svg width="20" height="20" viewBox="0 0 20 20" fill="none" xmlns="http://www.w3.org/2000/svg">
  <path d="M10 0C10.2652 0 10.5196 0.105357 10.7071 0.292893C10.8946 0.48043 11 0.734784 11 1V3.032L10.999 3.053L10.997 3.083C12.3956 3.31909 13.6654 4.04287 14.5813 5.126C15.4971 6.20912 15.9997 7.58159 16 9C16 12.093 16.625 13.312 17.599 15.21L17.633 15.278C17.803 15.608 17.563 16 17.191 16H2.809C2.72401 16.0001 2.64043 15.9783 2.56627 15.9368C2.49211 15.8953 2.42986 15.8355 2.38549 15.763C2.34112 15.6905 2.31611 15.6078 2.31288 15.5229C2.30964 15.438 2.32827 15.3536 2.367 15.278L2.401 15.21C3.375 13.312 4 12.093 4 9C4.00006 7.58142 4.50258 6.20871 5.41842 5.12538C6.33425 4.04205 7.6042 3.31811 9.003 3.082L9.001 3.042C9.00031 3.02801 8.99998 3.01401 9 3V1C9 0.734784 9.10535 0.48043 9.29289 0.292893C9.48042 0.105357 9.73478 0 10 0V0ZM12 18C12 18.5304 11.7893 19.0391 11.4142 19.4142C11.0391 19.7893 10.5304 20 10 20C9.46956 20 8.96086 19.7893 8.58578 19.4142C8.21071 19.0391 8 18.5304 8 18H12Z" fill="#B0AAD0" />
</svg>