<svg width="20" height="20" viewBox="0 0 20 20" fill="none" xmlns="http://www.w3.org/2000/svg">
  <path d="M5 12L1.376 8.99999C0.692003 8.45299 0.992003 7.35299 1.86 7.22899L7 6.99999L9.195 1.49699C9.26975 1.34749 9.38465 1.22175 9.52683 1.13387C9.66901 1.046 9.83286 0.999451 10 0.999451C10.1671 0.999451 10.331 1.046 10.4732 1.13387C10.6154 1.22175 10.7303 1.34749 10.805 1.49699L13 6.99999L18.14 7.22899C19.008 7.35299 19.308 8.45299 18.624 8.99999L15 12L15.989 17.857C16.0148 18.0376 15.9907 18.2219 15.9193 18.3898C15.8479 18.5578 15.7319 18.7029 15.5839 18.8097C15.4359 18.9164 15.2614 18.9806 15.0796 18.9952C14.8977 19.0099 14.7152 18.9746 14.552 18.893L10 16L5.448 18.892C5.28477 18.9736 5.10233 19.0089 4.92044 18.9942C4.73856 18.9796 4.56415 18.9154 4.41613 18.8087C4.26811 18.7019 4.15211 18.5568 4.0807 18.3888C4.00928 18.2209 3.98518 18.0366 4.011 17.856L5 12Z" fill="#B0AAD0" />
</svg>